<svg width="44.961914" height="40.985107" viewBox="0 0 44.9619 40.9851" fill="none" xmlns="http://www.w3.org/2000/svg" xmlns:xlink="http://www.w3.org/1999/xlink">
	<desc>
			Created with Pixso.
	</desc>
	<defs>
		<radialGradient gradientTransform="translate(22.4812 20.4926) rotate(89.7086) scale(22.3294 24.4958)" cx="0.000000" cy="0.000000" r="1.000000" id="paint_radial_444_19951_0" gradientUnits="userSpaceOnUse">
			<stop stop-color="#C7D7FF"/>
			<stop offset="1.000000" stop-color="#788199"/>
		</radialGradient>
	</defs>
	<path id="Vector" d="M7.5 40.98C5.51 40.98 3.6 40.19 2.19 38.78C0.79 37.38 0 35.47 0 33.48C0 31.49 0.79 29.58 2.19 28.18C3.6 26.77 5.51 25.98 7.5 25.98C9.48 25.98 11.39 26.77 12.8 28.18C14.21 29.58 15 31.49 15 33.48C15 35.47 14.21 37.38 12.8 38.78C11.39 40.19 9.48 40.98 7.5 40.98ZM43.99 29.73L28.99 3.75C28 2.02 26.36 0.77 24.44 0.25C22.51 -0.26 20.47 0.01 18.74 1C17.02 1.99 15.76 3.63 15.25 5.55C14.73 7.48 15 9.52 16 11.25L31 37.23C32 38.93 33.64 40.16 35.55 40.67C37.46 41.17 39.49 40.89 41.21 39.91C42.92 38.92 44.17 37.3 44.69 35.39C45.21 33.48 44.96 31.45 43.99 29.73ZM14.08 7.07L2.93 26.39C4.29 25.51 5.87 25.04 7.5 25.04C12.29 25.03 16.17 29.09 15.92 33.88L21.95 23.43L15.18 11.72C14.37 10.31 13.99 8.69 14.08 7.07Z" fill="#000000" fill-opacity="1.000000" fill-rule="nonzero"/>
	<path id="Vector" d="M7.5 40.98C5.51 40.98 3.6 40.19 2.19 38.78C0.79 37.38 0 35.47 0 33.48C0 31.49 0.79 29.58 2.19 28.18C3.6 26.77 5.51 25.98 7.5 25.98C9.48 25.98 11.39 26.77 12.8 28.18C14.21 29.58 15 31.49 15 33.48C15 35.47 14.21 37.38 12.8 38.78C11.39 40.19 9.48 40.98 7.5 40.98ZM43.99 29.73L28.99 3.75C28 2.02 26.36 0.77 24.44 0.25C22.51 -0.26 20.47 0.01 18.74 1C17.02 1.99 15.76 3.63 15.25 5.55C14.73 7.48 15 9.52 16 11.25L31 37.23C32 38.93 33.64 40.16 35.55 40.67C37.46 41.17 39.49 40.89 41.21 39.91C42.92 38.92 44.17 37.3 44.69 35.39C45.21 33.48 44.96 31.45 43.99 29.73ZM14.08 7.07L2.93 26.39C4.29 25.51 5.87 25.04 7.5 25.04C12.29 25.03 16.17 29.09 15.92 33.88L21.95 23.43L15.18 11.72C14.37 10.31 13.99 8.69 14.08 7.07Z" fill="url(#paint_radial_444_19951_0)" fill-opacity="1.000000" fill-rule="nonzero"/>
</svg>
