<svg width="39.235352" height="45.000000" viewBox="0 0 39.2354 45" fill="none" xmlns="http://www.w3.org/2000/svg" xmlns:xlink="http://www.w3.org/1999/xlink">
	<desc>
			Created with Pixso.
	</desc>
	<defs>
		<radialGradient gradientTransform="translate(19.6177 22.5) rotate(89.7684) scale(24.5166 21.3759)" cx="0.000000" cy="0.000000" r="1.000000" id="paint_radial_444_19960_0" gradientUnits="userSpaceOnUse">
			<stop stop-color="#C7D7FF"/>
			<stop offset="1.000000" stop-color="#788199"/>
		</radialGradient>
	</defs>
	<path id="Vector" d="M30.41 33.65C30.85 33.89 31.42 33.86 31.81 33.51L31.83 33.53C33.33 32.19 34.85 30.88 36.39 29.58C36.88 29.17 36.79 28.53 36.41 27.99L36.06 27.52C35.09 26.21 34.16 24.97 34.16 22.48L34.16 13.2L34.17 12.25C34.19 8.7 34.21 5.45 31.54 2.96C29.26 0.77 25.48 0 22.58 0C16.92 0 10.6 2.1 9.27 9.11C9.13 9.85 9.67 10.24 10.15 10.35L15.93 10.97C16.47 10.95 16.86 10.42 16.96 9.88C17.45 7.47 19.48 6.31 21.75 6.31C22.97 6.31 24.36 6.76 25.09 7.86C25.83 8.95 25.82 10.42 25.81 11.73L25.81 12.94C25.25 13 24.67 13.06 24.07 13.12C20.94 13.44 17.33 13.82 14.62 15.01C10.89 16.62 8.26 19.91 8.26 24.74C8.26 30.93 12.16 34.02 17.17 34.02C21.41 34.02 23.72 33.02 26.99 29.68L27.46 30.38C28.23 31.51 28.74 32.27 30.4 33.65L30.41 33.65ZM16.95 23.71C16.95 18.63 21.5 17.71 25.81 17.71L25.81 19.32C25.81 21.5 25.81 23.35 24.69 25.32C23.75 26.99 22.25 28.02 20.57 28.02C18.29 28.02 16.95 26.28 16.95 23.71ZM1.22 34.23C8.61 38.74 20.06 45.72 38.3 37.04C39.08 36.71 39.63 37.26 38.86 38.25C38.07 39.26 31.81 45 21.29 45C10.77 45 2.72 37.81 0.26 34.83C-0.42 34.06 0.36 33.71 0.82 33.99L1.22 34.23Z" fill="#000000" fill-opacity="1.000000" fill-rule="nonzero"/>
	<path id="Vector" d="M30.41 33.65C30.85 33.89 31.42 33.86 31.81 33.51L31.83 33.53C33.33 32.19 34.85 30.88 36.39 29.58C36.88 29.17 36.79 28.53 36.41 27.99L36.06 27.52C35.09 26.21 34.16 24.97 34.16 22.48L34.16 13.2L34.17 12.25C34.19 8.7 34.21 5.45 31.54 2.96C29.26 0.77 25.48 0 22.58 0C16.92 0 10.6 2.1 9.27 9.11C9.13 9.85 9.67 10.24 10.15 10.35L15.93 10.97C16.47 10.95 16.86 10.42 16.96 9.88C17.45 7.47 19.48 6.31 21.75 6.31C22.97 6.31 24.36 6.76 25.09 7.86C25.83 8.95 25.82 10.42 25.81 11.73L25.81 12.94C25.25 13 24.67 13.06 24.07 13.12C20.94 13.44 17.33 13.82 14.62 15.01C10.89 16.62 8.26 19.91 8.26 24.74C8.26 30.93 12.16 34.02 17.17 34.02C21.41 34.02 23.72 33.02 26.99 29.68L27.46 30.38C28.23 31.51 28.74 32.27 30.4 33.65L30.41 33.65ZM16.95 23.71C16.95 18.63 21.5 17.71 25.81 17.71L25.81 19.32C25.81 21.5 25.81 23.35 24.69 25.32C23.75 26.99 22.25 28.02 20.57 28.02C18.29 28.02 16.95 26.28 16.95 23.71ZM1.22 34.23C8.61 38.74 20.06 45.72 38.3 37.04C39.08 36.71 39.63 37.26 38.86 38.25C38.07 39.26 31.81 45 21.29 45C10.77 45 2.72 37.81 0.26 34.83C-0.42 34.06 0.36 33.71 0.82 33.99L1.22 34.23Z" fill="url(#paint_radial_444_19960_0)" fill-opacity="1.000000" fill-rule="nonzero"/>
</svg>
