<svg width="41.250000" height="41.250000" viewBox="0 0 41.25 41.25" fill="none" xmlns="http://www.w3.org/2000/svg" xmlns:xlink="http://www.w3.org/1999/xlink">
	<desc>
			Created with Pixso.
	</desc>
	<defs>
		<radialGradient gradientTransform="translate(20.625 20.625) rotate(89.7339) scale(22.4736 22.4733)" cx="0.000000" cy="0.000000" r="1.000000" id="paint_radial_444_19975_0" gradientUnits="userSpaceOnUse">
			<stop stop-color="#C7D7FF"/>
			<stop offset="1.000000" stop-color="#788199"/>
		</radialGradient>
	</defs>
	<path id="Vector" d="M36.66 0C37.88 0 39.04 0.48 39.9 1.34C40.76 2.2 41.25 3.36 41.25 4.58L41.25 36.66C41.25 37.88 40.76 39.04 39.9 39.9C39.04 40.76 37.88 41.25 36.66 41.25L4.58 41.25C3.36 41.25 2.2 40.76 1.34 39.9C0.48 39.04 0 37.88 0 36.66L0 4.58C0 3.36 0.48 2.2 1.34 1.34C2.2 0.48 3.36 0 4.58 0L36.66 0ZM35.52 35.52L35.52 23.37C35.52 21.39 34.73 19.49 33.33 18.09C31.93 16.69 30.03 15.9 28.04 15.9C26.1 15.9 23.83 17.09 22.73 18.88L22.73 16.33L16.33 16.33L16.33 35.52L22.73 35.52L22.73 24.22C22.73 22.45 24.15 21.01 25.91 21.01C26.76 21.01 27.58 21.35 28.18 21.95C28.78 22.55 29.12 23.37 29.12 24.22L29.12 35.52L35.52 35.52ZM8.89 12.74C9.91 12.74 10.89 12.33 11.61 11.61C12.33 10.89 12.74 9.91 12.74 8.89C12.74 6.76 11.02 5.01 8.89 5.01C7.86 5.01 6.87 5.42 6.15 6.15C5.42 6.87 5.01 7.86 5.01 8.89C5.01 11.02 6.76 12.74 8.89 12.74ZM12.07 35.52L12.07 16.33L5.72 16.33L5.72 35.52L12.07 35.52Z" fill="#000000" fill-opacity="1.000000" fill-rule="nonzero"/>
	<path id="Vector" d="M36.66 0C37.88 0 39.04 0.48 39.9 1.34C40.76 2.2 41.25 3.36 41.25 4.58L41.25 36.66C41.25 37.88 40.76 39.04 39.9 39.9C39.04 40.76 37.88 41.25 36.66 41.25L4.58 41.25C3.36 41.25 2.2 40.76 1.34 39.9C0.48 39.04 0 37.88 0 36.66L0 4.58C0 3.36 0.48 2.2 1.34 1.34C2.2 0.48 3.36 0 4.58 0L36.66 0ZM35.52 35.52L35.52 23.37C35.52 21.39 34.73 19.49 33.33 18.09C31.93 16.69 30.03 15.9 28.04 15.9C26.1 15.9 23.83 17.09 22.73 18.88L22.73 16.33L16.33 16.33L16.33 35.52L22.73 35.52L22.73 24.22C22.73 22.45 24.15 21.01 25.91 21.01C26.76 21.01 27.58 21.35 28.18 21.95C28.78 22.55 29.12 23.37 29.12 24.22L29.12 35.52L35.52 35.52ZM8.89 12.74C9.91 12.74 10.89 12.33 11.61 11.61C12.33 10.89 12.74 9.91 12.74 8.89C12.74 6.76 11.02 5.01 8.89 5.01C7.86 5.01 6.87 5.42 6.15 6.15C5.42 6.87 5.01 7.86 5.01 8.89C5.01 11.02 6.76 12.74 8.89 12.74ZM12.07 35.52L12.07 16.33L5.72 16.33L5.72 35.52L12.07 35.52Z" fill="url(#paint_radial_444_19975_0)" fill-opacity="1.000000" fill-rule="nonzero"/>
</svg>
