<svg width="51.727539" height="34.375000" viewBox="0 0 51.7275 34.375" fill="none" xmlns="http://www.w3.org/2000/svg" xmlns:xlink="http://www.w3.org/1999/xlink">
	<desc>
			Created with Pixso.
	</desc>
	<defs>
		<radialGradient gradientTransform="translate(25.8637 17.1875) rotate(89.5999) scale(18.7283 28.1812)" cx="0.000000" cy="0.000000" r="1.000000" id="paint_radial_444_19955_0" gradientUnits="userSpaceOnUse">
			<stop stop-color="#C7D7FF"/>
			<stop offset="1.000000" stop-color="#788199"/>
		</radialGradient>
	</defs>
	<path id="Vector" d="M37.12 0C32.88 0 29.56 3.19 26.56 7.25C22.43 2 18.99 0 14.86 0C6.44 0 0 10.95 0 22.54C0 29.79 3.5 34.37 9.38 34.37C13.61 34.37 16.66 32.38 22.07 22.92C22.07 22.92 24.32 18.94 25.87 16.19C26.41 17.07 26.99 18.02 27.59 19.03L30.13 23.3C35.07 31.57 37.82 34.37 42.81 34.37C48.54 34.37 51.72 29.73 51.72 22.33C51.72 10.19 45.13 0 37.12 0ZM17.94 20.36C13.55 27.23 12.04 28.78 9.6 28.78C7.08 28.78 5.59 26.57 5.59 22.63C5.59 14.22 9.79 5.61 14.79 5.61C17.5 5.61 19.76 7.18 23.23 12.14C19.93 17.19 17.94 20.36 17.94 20.36ZM34.5 19.49L31.46 14.43C30.7 13.19 29.91 11.96 29.09 10.75C31.83 6.53 34.08 4.42 36.77 4.42C42.33 4.42 46.79 12.63 46.79 22.7C46.79 26.54 45.53 28.77 42.93 28.77C40.43 28.77 39.24 27.12 34.49 19.49L34.5 19.49Z" fill="#000000" fill-opacity="1.000000" fill-rule="nonzero"/>
	<path id="Vector" d="M37.12 0C32.88 0 29.56 3.19 26.56 7.25C22.43 2 18.99 0 14.86 0C6.44 0 0 10.95 0 22.54C0 29.79 3.5 34.37 9.38 34.37C13.61 34.37 16.66 32.38 22.07 22.92C22.07 22.92 24.32 18.94 25.87 16.19C26.41 17.07 26.99 18.02 27.59 19.03L30.13 23.3C35.07 31.57 37.82 34.37 42.81 34.37C48.54 34.37 51.72 29.73 51.72 22.33C51.72 10.19 45.13 0 37.12 0ZM17.94 20.36C13.55 27.23 12.04 28.78 9.6 28.78C7.08 28.78 5.59 26.57 5.59 22.63C5.59 14.22 9.79 5.61 14.79 5.61C17.5 5.61 19.76 7.18 23.23 12.14C19.93 17.19 17.94 20.36 17.94 20.36ZM34.5 19.49L31.46 14.43C30.7 13.19 29.91 11.96 29.09 10.75C31.83 6.53 34.08 4.42 36.77 4.42C42.33 4.42 46.79 12.63 46.79 22.7C46.79 26.54 45.53 28.77 42.93 28.77C40.43 28.77 39.24 27.12 34.49 19.49L34.5 19.49Z" fill="url(#paint_radial_444_19955_0)" fill-opacity="1.000000" fill-rule="nonzero"/>
</svg>
